<svg xmlns="http://www.w3.org/2000/svg" viewBox="0 0 100 100">
  <defs>
    <linearGradient id="bg" x1="0" y1="0" x2="1" y2="1">
      <stop offset="0%" stop-color="#4F6EF7"/>
      <stop offset="100%" stop-color="#7C3AED"/>
    </linearGradient>
  </defs>
  <rect width="100" height="100" rx="20" fill="url(#bg)"/>
  <!-- 日历/周表 -->
  <rect x="18" y="22" width="64" height="56" rx="6" fill="white" opacity="0.15"/>
  <rect x="22" y="26" width="56" height="14" rx="3" fill="white" opacity="0.3"/>
  <line x1="22" y1="46" x2="78" y2="46" stroke="white" stroke-width="1.5" opacity="0.3"/>
  <line x1="22" y1="56" x2="78" y2="56" stroke="white" stroke-width="1.5" opacity="0.3"/>
  <line x1="22" y1="66" x2="60" y2="66" stroke="white" stroke-width="1.5" opacity="0.3"/>
  <!-- 文档/报告 -->
  <path d="M35 32 L65 32 L72 40 L72 78 L28 78 L28 40 Z" fill="white" opacity="0.9"/>
  <path d="M65 32 L65 40 L72 40" fill="white" opacity="0.6"/>
  <rect x="34" y="50" width="32" height="3" rx="1.5" fill="#4F6EF7"/>
  <rect x="34" y="58" width="24" height="3" rx="1.5" fill="#4F6EF7"/>
  <rect x="34" y="66" width="28" height="3" rx="1.5" fill="#4F6EF7"/>
  <!-- AI 星星/sparkle -->
  <circle cx="70" cy="28" r="10" fill="#FCD34D"/>
  <text x="70" y="33" text-anchor="middle" font-size="14" font-weight="bold" fill="#7C3AED">✦</text>
</svg>
